<svg width="24" height="24" viewBox="0 0 24 24" fill="none" xmlns="http://www.w3.org/2000/svg">
<rect width="24" height="24" fill="white" fill-opacity="0.01"/>
<path d="M11.1033 3.81699C11.4701 3.07374 12.5299 3.07374 12.8967 3.81699L14.7063 7.48347C14.8519 7.77862 15.1335 7.98319 15.4592 8.03051L19.5054 8.61846C20.3256 8.73765 20.6531 9.74562 20.0596 10.3242L17.1318 13.1781C16.8961 13.4079 16.7885 13.7389 16.8442 14.0632L17.5353 18.0931C17.6754 18.91 16.818 19.533 16.0844 19.1473L12.4653 17.2446C12.174 17.0915 11.826 17.0915 11.5347 17.2446L7.91562 19.1473C7.18199 19.533 6.32456 18.91 6.46467 18.0931L7.15585 14.0632C7.21148 13.7389 7.10393 13.4079 6.86825 13.1781L3.94038 10.3242C3.34687 9.74562 3.67438 8.73765 4.4946 8.61846L8.54081 8.03051C8.86652 7.98319 9.14808 7.77862 9.29374 7.48347L11.1033 3.81699Z" fill="#FFE000"/>
</svg>
